<svg width="75" height="13" viewBox="0 0 75 13" fill="none" xmlns="http://www.w3.org/2000/svg">
    <path d="M5.248 10.16C4.704 10.16 4.224 10.0587 3.808 9.856C3.392 9.64267 3.01867 9.36 2.688 9.008L3.312 9.264L3.248 10H0.224V8.592H1.056V2H0.224V0.592H3.424V4.656L3.024 4.56C3.26933 4.22933 3.59467 3.96267 4 3.76C4.40533 3.54667 4.864 3.44 5.376 3.44C5.96267 3.44 6.46933 3.57867 6.896 3.856C7.33333 4.12267 7.664 4.50133 7.888 4.992C8.12267 5.48267 8.24 6.05867 8.24 6.72C8.24 7.424 8.112 8.032 7.856 8.544C7.61067 9.056 7.264 9.456 6.816 9.744C6.368 10.0213 5.84533 10.16 5.248 10.16ZM4.416 8.4C4.832 8.4 5.16267 8.256 5.408 7.968C5.664 7.68 5.792 7.29067 5.792 6.8C5.792 6.27733 5.664 5.88267 5.408 5.616C5.152 5.33867 4.82133 5.2 4.416 5.2C4.16 5.2 3.91467 5.264 3.68 5.392C3.44533 5.52 3.23733 5.712 3.056 5.968L3.424 5.152V8.576L3.008 7.744C3.21067 7.94667 3.424 8.10667 3.648 8.224C3.88267 8.34133 4.13867 8.4 4.416 8.4ZM12.4029 10.176C11.6882 10.176 11.0642 10.0373 10.5309 9.76C9.99754 9.472 9.58154 9.072 9.28288 8.56C8.98421 8.048 8.83488 7.456 8.83488 6.784C8.83488 6.112 8.98421 5.52533 9.28288 5.024C9.58154 4.52267 9.99754 4.13333 10.5309 3.856C11.0642 3.568 11.6882 3.424 12.4029 3.424C13.1175 3.424 13.7415 3.568 14.2749 3.856C14.8082 4.13333 15.2242 4.52267 15.5229 5.024C15.8215 5.52533 15.9709 6.112 15.9709 6.784C15.9709 7.456 15.8215 8.048 15.5229 8.56C15.2242 9.072 14.8082 9.472 14.2749 9.76C13.7415 10.0373 13.1175 10.176 12.4029 10.176ZM12.4029 8.384C12.6802 8.384 12.9202 8.32 13.1229 8.192C13.3362 8.064 13.4962 7.88267 13.6029 7.648C13.7095 7.40267 13.7629 7.11467 13.7629 6.784C13.7629 6.45333 13.7095 6.17067 13.6029 5.936C13.4962 5.70133 13.3362 5.52 13.1229 5.392C12.9202 5.264 12.6802 5.2 12.4029 5.2C12.1149 5.2 11.8695 5.264 11.6669 5.392C11.4749 5.52 11.3202 5.70133 11.2029 5.936C11.0962 6.17067 11.0429 6.45333 11.0429 6.784C11.0429 7.11467 11.0962 7.40267 11.2029 7.648C11.3202 7.88267 11.4749 8.064 11.6669 8.192C11.8695 8.32 12.1149 8.384 12.4029 8.384ZM19.4176 10.16C18.927 10.16 18.5163 10.0587 18.1856 9.856C17.8656 9.65333 17.6256 9.38133 17.4656 9.04C17.3056 8.69867 17.2256 8.32533 17.2256 7.92V4.992H16.4256V3.6H19.6096V7.568C19.6096 7.87733 19.679 8.12267 19.8176 8.304C19.967 8.47467 20.1803 8.56 20.4576 8.56C20.7243 8.56 20.9856 8.496 21.2416 8.368C21.5083 8.24 21.7536 8.064 21.9776 7.84L21.4976 8.864V4.992H20.7936V3.6H23.8656V8.592H24.6976V10H21.6896L21.6096 9.168L22.2016 8.944C21.7856 9.31733 21.3483 9.616 20.8896 9.84C20.431 10.0533 19.9403 10.16 19.4176 10.16ZM25.2263 10V8.592H26.0583V4.992H25.2263V3.6H28.4263V5.568L28.1543 5.584C28.3249 5.01867 28.5169 4.58667 28.7303 4.288C28.9543 3.97867 29.1889 3.76533 29.4343 3.648C29.6903 3.52 29.9409 3.456 30.1863 3.456C30.4103 3.456 30.6236 3.48267 30.8263 3.536C31.0289 3.57867 31.2209 3.648 31.4023 3.744L30.9063 5.664C30.7463 5.568 30.5489 5.488 30.3143 5.424C30.0903 5.36 29.8503 5.328 29.5943 5.328C29.3276 5.328 29.0663 5.408 28.8103 5.568C28.5543 5.728 28.4263 6 28.4263 6.384V8.592H29.3383V10H25.2263ZM31.7248 10V8.592H32.5568V2H31.7248V0.592H34.8928V8.592H35.6768V10H31.7248ZM39.8586 10.176C39.1226 10.176 38.4773 10.0427 37.9226 9.776C37.3786 9.50933 36.952 9.12533 36.6426 8.624C36.3333 8.112 36.1786 7.504 36.1786 6.8C36.1786 6.128 36.328 5.54133 36.6266 5.04C36.9253 4.53867 37.336 4.144 37.8586 3.856C38.392 3.568 39 3.424 39.6826 3.424C40.3546 3.424 40.9253 3.568 41.3946 3.856C41.8746 4.13333 42.2373 4.52267 42.4826 5.024C42.7386 5.51467 42.8666 6.08533 42.8666 6.736V7.168H37.4906L37.5066 6.16H40.6746C40.6746 5.904 40.632 5.69067 40.5466 5.52C40.472 5.33867 40.3546 5.2 40.1946 5.104C40.0346 5.008 39.8373 4.96 39.6026 4.96C39.336 4.96 39.112 5.02933 38.9306 5.168C38.7493 5.296 38.6106 5.488 38.5146 5.744C38.4293 5.98933 38.3866 6.28267 38.3866 6.624C38.3866 7.01867 38.4613 7.34933 38.6106 7.616C38.7706 7.872 38.984 8.06933 39.2506 8.208C39.5173 8.336 39.8266 8.4 40.1786 8.4C40.5626 8.4 40.9253 8.336 41.2666 8.208C41.608 8.08 41.9066 7.91467 42.1626 7.712L42.8186 9.12C42.456 9.44 42.024 9.696 41.5226 9.888C41.0213 10.08 40.4666 10.176 39.8586 10.176ZM47.4595 10.16C47.0755 10.16 46.7128 10.112 46.3715 10.016C46.0302 9.93067 45.7368 9.80267 45.4915 9.632C45.2462 9.45067 45.0648 9.248 44.9475 9.024L45.3955 8.992V10H43.9075V7.888H45.2995L45.3795 8.752L44.9635 8.16C45.1982 8.384 45.4755 8.56533 45.7955 8.704C46.1155 8.84267 46.4515 8.912 46.8035 8.912C47.0702 8.912 47.2782 8.864 47.4275 8.768C47.5768 8.672 47.6515 8.53867 47.6515 8.368C47.6515 8.15467 47.5662 8 47.3955 7.904C47.2248 7.79733 46.9475 7.70133 46.5635 7.616L45.9875 7.504C45.2408 7.33333 44.7022 7.09333 44.3715 6.784C44.0515 6.464 43.8915 6.02133 43.8915 5.456C43.8915 4.82667 44.1102 4.336 44.5475 3.984C44.9955 3.62133 45.5768 3.44 46.2915 3.44C46.6648 3.44 47.0062 3.488 47.3155 3.584C47.6355 3.68 47.8968 3.808 48.0995 3.968C48.3128 4.11733 48.4515 4.27733 48.5155 4.448L48.0195 4.48V3.584H49.5075V5.6H48.1155L48.0035 4.592L48.3715 5.216C48.2862 5.09867 48.1582 4.99733 47.9875 4.912C47.8275 4.82667 47.6462 4.76267 47.4435 4.72C47.2408 4.66667 47.0435 4.64 46.8515 4.64C46.6275 4.64 46.4408 4.688 46.2915 4.784C46.1422 4.86933 46.0675 5.00267 46.0675 5.184C46.0675 5.35467 46.1368 5.48267 46.2755 5.568C46.4142 5.65333 46.6062 5.728 46.8515 5.792L47.5235 5.92C48.0248 6.02667 48.4408 6.17067 48.7715 6.352C49.1128 6.52267 49.3688 6.752 49.5395 7.04C49.7208 7.31733 49.8115 7.68 49.8115 8.128C49.8115 8.576 49.7048 8.94933 49.4915 9.248C49.2888 9.54667 49.0062 9.776 48.6435 9.936C48.2915 10.0853 47.8968 10.16 47.4595 10.16ZM54.6284 12.688V11.28H55.6684V9.136L56.0524 9.232C55.8284 9.50933 55.5297 9.73333 55.1564 9.904C54.783 10.0747 54.3457 10.16 53.8444 10.16C53.2577 10.16 52.735 10.0213 52.2764 9.744C51.8177 9.46667 51.455 9.07733 51.1884 8.576C50.9217 8.07467 50.7884 7.49333 50.7884 6.832C50.7884 6.128 50.9164 5.52533 51.1724 5.024C51.439 4.512 51.807 4.12267 52.2764 3.856C52.7564 3.57867 53.3057 3.44 53.9244 3.44C54.447 3.44 54.911 3.54667 55.3164 3.76C55.7217 3.96267 56.0844 4.24533 56.4044 4.608L55.7804 4.352L55.8444 3.6H58.8524V4.992H58.0364V11.28H58.8524V12.688H54.6284ZM54.6444 8.4C54.911 8.4 55.1617 8.352 55.3964 8.256C55.631 8.16 55.839 8.02133 56.0204 7.84L55.6684 8.656V5.056L56.0844 5.872C55.8604 5.65867 55.6257 5.49333 55.3804 5.376C55.135 5.25867 54.8684 5.2 54.5804 5.2C54.3137 5.2 54.079 5.26933 53.8764 5.408C53.6737 5.536 53.5137 5.72267 53.3964 5.968C53.2897 6.20267 53.2364 6.48533 53.2364 6.816C53.2364 7.15733 53.295 7.44533 53.4124 7.68C53.5297 7.91467 53.695 8.096 53.9084 8.224C54.1324 8.34133 54.3777 8.4 54.6444 8.4ZM62.2145 10.16C61.7238 10.16 61.3132 10.0587 60.9825 9.856C60.6625 9.65333 60.4225 9.38133 60.2625 9.04C60.1025 8.69867 60.0225 8.32533 60.0225 7.92V4.992H59.2225V3.6H62.4065V7.568C62.4065 7.87733 62.4758 8.12267 62.6145 8.304C62.7638 8.47467 62.9772 8.56 63.2545 8.56C63.5212 8.56 63.7825 8.496 64.0385 8.368C64.3052 8.24 64.5505 8.064 64.7745 7.84L64.2945 8.864V4.992H63.5905V3.6H66.6625V8.592H67.4945V10H64.4865L64.4065 9.168L64.9985 8.944C64.5825 9.31733 64.1452 9.616 63.6865 9.84C63.2278 10.0533 62.7372 10.16 62.2145 10.16ZM71.6711 10.176C70.9351 10.176 70.2898 10.0427 69.7351 9.776C69.1911 9.50933 68.7645 9.12533 68.4551 8.624C68.1458 8.112 67.9911 7.504 67.9911 6.8C67.9911 6.128 68.1405 5.54133 68.4391 5.04C68.7378 4.53867 69.1485 4.144 69.6711 3.856C70.2045 3.568 70.8125 3.424 71.4951 3.424C72.1671 3.424 72.7378 3.568 73.2071 3.856C73.6871 4.13333 74.0498 4.52267 74.2951 5.024C74.5511 5.51467 74.6791 6.08533 74.6791 6.736V7.168H69.3031L69.3191 6.16H72.4871C72.4871 5.904 72.4445 5.69067 72.3591 5.52C72.2845 5.33867 72.1671 5.2 72.0071 5.104C71.8471 5.008 71.6498 4.96 71.4151 4.96C71.1485 4.96 70.9245 5.02933 70.7431 5.168C70.5618 5.296 70.4231 5.488 70.3271 5.744C70.2418 5.98933 70.1991 6.28267 70.1991 6.624C70.1991 7.01867 70.2738 7.34933 70.4231 7.616C70.5831 7.872 70.7965 8.06933 71.0631 8.208C71.3298 8.336 71.6391 8.4 71.9911 8.4C72.3751 8.4 72.7378 8.336 73.0791 8.208C73.4205 8.08 73.7191 7.91467 73.9751 7.712L74.6311 9.12C74.2685 9.44 73.8365 9.696 73.3351 9.888C72.8338 10.08 72.2791 10.176 71.6711 10.176Z" fill="#341F1F"/>
</svg>
