<svg width="67" height="13" viewBox="0 0 67 13" fill="none" xmlns="http://www.w3.org/2000/svg">
    <path d="M5.248 10.16C4.704 10.16 4.224 10.0587 3.808 9.856C3.392 9.64267 3.01867 9.36 2.688 9.008L3.312 9.264L3.248 10H0.224V8.592H1.056V2H0.224V0.592H3.424V4.656L3.024 4.56C3.26933 4.22933 3.59467 3.96267 4 3.76C4.40533 3.54667 4.864 3.44 5.376 3.44C5.96267 3.44 6.46933 3.57867 6.896 3.856C7.33333 4.12267 7.664 4.50133 7.888 4.992C8.12267 5.48267 8.24 6.05867 8.24 6.72C8.24 7.424 8.112 8.032 7.856 8.544C7.61067 9.056 7.264 9.456 6.816 9.744C6.368 10.0213 5.84533 10.16 5.248 10.16ZM4.416 8.4C4.832 8.4 5.16267 8.256 5.408 7.968C5.664 7.68 5.792 7.29067 5.792 6.8C5.792 6.27733 5.664 5.88267 5.408 5.616C5.152 5.33867 4.82133 5.2 4.416 5.2C4.16 5.2 3.91467 5.264 3.68 5.392C3.44533 5.52 3.23733 5.712 3.056 5.968L3.424 5.152V8.576L3.008 7.744C3.21067 7.94667 3.424 8.10667 3.648 8.224C3.88267 8.34133 4.13867 8.4 4.416 8.4ZM11.6989 10.16C11.2082 10.16 10.7975 10.0587 10.4669 9.856C10.1469 9.65333 9.90688 9.38133 9.74688 9.04C9.58688 8.69867 9.50688 8.32533 9.50688 7.92V4.992H8.70688V3.6H11.8909V7.568C11.8909 7.87733 11.9602 8.12267 12.0989 8.304C12.2482 8.47467 12.4615 8.56 12.7389 8.56C13.0055 8.56 13.2669 8.496 13.5229 8.368C13.7895 8.24 14.0349 8.064 14.2589 7.84L13.7789 8.864V4.992H13.0749V3.6H16.1469V8.592H16.9789V10H13.9709L13.8909 9.168L14.4829 8.944C14.0669 9.31733 13.6295 9.616 13.1709 9.84C12.7122 10.0533 12.2215 10.16 11.6989 10.16ZM17.5075 10V8.592H18.3395V4.992H17.5075V3.6H20.7075V5.568L20.4355 5.584C20.6062 5.01867 20.7982 4.58667 21.0115 4.288C21.2355 3.97867 21.4702 3.76533 21.7155 3.648C21.9715 3.52 22.2222 3.456 22.4675 3.456C22.6915 3.456 22.9048 3.48267 23.1075 3.536C23.3102 3.57867 23.5022 3.648 23.6835 3.744L23.1875 5.664C23.0275 5.568 22.8302 5.488 22.5955 5.424C22.3715 5.36 22.1315 5.328 21.8755 5.328C21.6088 5.328 21.3475 5.408 21.0915 5.568C20.8355 5.728 20.7075 6 20.7075 6.384V8.592H21.6195V10H17.5075ZM24.006 10V8.592H24.838V2H24.006V0.592H27.174V8.592H27.958V10H24.006ZM32.1399 10.176C31.4039 10.176 30.7585 10.0427 30.2039 9.776C29.6599 9.50933 29.2332 9.12533 28.9239 8.624C28.6145 8.112 28.4599 7.504 28.4599 6.8C28.4599 6.128 28.6092 5.54133 28.9079 5.04C29.2065 4.53867 29.6172 4.144 30.1399 3.856C30.6732 3.568 31.2812 3.424 31.9639 3.424C32.6359 3.424 33.2065 3.568 33.6759 3.856C34.1559 4.13333 34.5185 4.52267 34.7639 5.024C35.0199 5.51467 35.1479 6.08533 35.1479 6.736V7.168H29.7719L29.7879 6.16H32.9559C32.9559 5.904 32.9132 5.69067 32.8279 5.52C32.7532 5.33867 32.6359 5.2 32.4759 5.104C32.3159 5.008 32.1185 4.96 31.8839 4.96C31.6172 4.96 31.3932 5.02933 31.2119 5.168C31.0305 5.296 30.8919 5.488 30.7959 5.744C30.7105 5.98933 30.6679 6.28267 30.6679 6.624C30.6679 7.01867 30.7425 7.34933 30.8919 7.616C31.0519 7.872 31.2652 8.06933 31.5319 8.208C31.7985 8.336 32.1079 8.4 32.4599 8.4C32.8439 8.4 33.2065 8.336 33.5479 8.208C33.8892 8.08 34.1879 7.91467 34.4439 7.712L35.0999 9.12C34.7372 9.44 34.3052 9.696 33.8039 9.888C33.3025 10.08 32.7479 10.176 32.1399 10.176ZM39.7408 10.16C39.3568 10.16 38.9941 10.112 38.6528 10.016C38.3114 9.93067 38.0181 9.80267 37.7728 9.632C37.5274 9.45067 37.3461 9.248 37.2288 9.024L37.6768 8.992V10H36.1888V7.888H37.5807L37.6608 8.752L37.2448 8.16C37.4794 8.384 37.7568 8.56533 38.0768 8.704C38.3968 8.84267 38.7328 8.912 39.0848 8.912C39.3514 8.912 39.5594 8.864 39.7088 8.768C39.8581 8.672 39.9328 8.53867 39.9328 8.368C39.9328 8.15467 39.8474 8 39.6768 7.904C39.5061 7.79733 39.2288 7.70133 38.8448 7.616L38.2688 7.504C37.5221 7.33333 36.9834 7.09333 36.6528 6.784C36.3328 6.464 36.1728 6.02133 36.1728 5.456C36.1728 4.82667 36.3914 4.336 36.8288 3.984C37.2768 3.62133 37.8581 3.44 38.5728 3.44C38.9461 3.44 39.2874 3.488 39.5968 3.584C39.9168 3.68 40.1781 3.808 40.3808 3.968C40.5941 4.11733 40.7328 4.27733 40.7968 4.448L40.3008 4.48V3.584H41.7888V5.6H40.3968L40.2848 4.592L40.6528 5.216C40.5674 5.09867 40.4394 4.99733 40.2688 4.912C40.1088 4.82667 39.9274 4.76267 39.7248 4.72C39.5221 4.66667 39.3248 4.64 39.1328 4.64C38.9088 4.64 38.7221 4.688 38.5728 4.784C38.4234 4.86933 38.3488 5.00267 38.3488 5.184C38.3488 5.35467 38.4181 5.48267 38.5568 5.568C38.6954 5.65333 38.8874 5.728 39.1328 5.792L39.8048 5.92C40.3061 6.02667 40.7221 6.17067 41.0528 6.352C41.3941 6.52267 41.6501 6.752 41.8208 7.04C42.0021 7.31733 42.0928 7.68 42.0928 8.128C42.0928 8.576 41.9861 8.94933 41.7728 9.248C41.5701 9.54667 41.2874 9.776 40.9248 9.936C40.5728 10.0853 40.1781 10.16 39.7408 10.16ZM46.9096 12.688V11.28H47.9496V9.136L48.3336 9.232C48.1096 9.50933 47.811 9.73333 47.4376 9.904C47.0643 10.0747 46.627 10.16 46.1256 10.16C45.539 10.16 45.0163 10.0213 44.5576 9.744C44.099 9.46667 43.7363 9.07733 43.4696 8.576C43.203 8.07467 43.0696 7.49333 43.0696 6.832C43.0696 6.128 43.1976 5.52533 43.4536 5.024C43.7203 4.512 44.0883 4.12267 44.5576 3.856C45.0376 3.57867 45.587 3.44 46.2056 3.44C46.7283 3.44 47.1923 3.54667 47.5976 3.76C48.003 3.96267 48.3656 4.24533 48.6856 4.608L48.0616 4.352L48.1256 3.6H51.1336V4.992H50.3176V11.28H51.1336V12.688H46.9096ZM46.9256 8.4C47.1923 8.4 47.443 8.352 47.6776 8.256C47.9123 8.16 48.1203 8.02133 48.3016 7.84L47.9496 8.656V5.056L48.3656 5.872C48.1416 5.65867 47.907 5.49333 47.6616 5.376C47.4163 5.25867 47.1496 5.2 46.8616 5.2C46.595 5.2 46.3603 5.26933 46.1576 5.408C45.955 5.536 45.795 5.72267 45.6776 5.968C45.571 6.20267 45.5176 6.48533 45.5176 6.816C45.5176 7.15733 45.5763 7.44533 45.6936 7.68C45.811 7.91467 45.9763 8.096 46.1896 8.224C46.4136 8.34133 46.659 8.4 46.9256 8.4ZM54.4958 10.16C54.0051 10.16 53.5944 10.0587 53.2638 9.856C52.9438 9.65333 52.7038 9.38133 52.5438 9.04C52.3838 8.69867 52.3038 8.32533 52.3038 7.92V4.992H51.5038V3.6H54.6878V7.568C54.6878 7.87733 54.7571 8.12267 54.8958 8.304C55.0451 8.47467 55.2584 8.56 55.5358 8.56C55.8024 8.56 56.0638 8.496 56.3198 8.368C56.5864 8.24 56.8318 8.064 57.0558 7.84L56.5758 8.864V4.992H55.8718V3.6H58.9438V8.592H59.7758V10H56.7678L56.6878 9.168L57.2798 8.944C56.8638 9.31733 56.4264 9.616 55.9678 9.84C55.5091 10.0533 55.0184 10.16 54.4958 10.16ZM63.9524 10.176C63.2164 10.176 62.571 10.0427 62.0164 9.776C61.4724 9.50933 61.0457 9.12533 60.7364 8.624C60.427 8.112 60.2724 7.504 60.2724 6.8C60.2724 6.128 60.4217 5.54133 60.7204 5.04C61.019 4.53867 61.4297 4.144 61.9524 3.856C62.4857 3.568 63.0937 3.424 63.7764 3.424C64.4484 3.424 65.019 3.568 65.4884 3.856C65.9684 4.13333 66.331 4.52267 66.5764 5.024C66.8324 5.51467 66.9604 6.08533 66.9604 6.736V7.168H61.5844L61.6004 6.16H64.7684C64.7684 5.904 64.7257 5.69067 64.6404 5.52C64.5657 5.33867 64.4484 5.2 64.2884 5.104C64.1284 5.008 63.931 4.96 63.6964 4.96C63.4297 4.96 63.2057 5.02933 63.0244 5.168C62.843 5.296 62.7044 5.488 62.6084 5.744C62.523 5.98933 62.4804 6.28267 62.4804 6.624C62.4804 7.01867 62.555 7.34933 62.7044 7.616C62.8644 7.872 63.0777 8.06933 63.3444 8.208C63.611 8.336 63.9204 8.4 64.2724 8.4C64.6564 8.4 65.019 8.336 65.3604 8.208C65.7017 8.08 66.0004 7.91467 66.2564 7.712L66.9124 9.12C66.5497 9.44 66.1177 9.696 65.6164 9.888C65.115 10.08 64.5604 10.176 63.9524 10.176Z" fill="#341F1F"/>
</svg>
